# xmcd CD database file
#
# Track frame offsets:
#	150
#	19347
#	33887
#	54947
#	74254
#	94623
#	110705
#	129996
#	148978
#	167578
#	186128
#	203403
#	220336
#	240404
#
# Disc length: 3414 seconds
#
# Revision: 0
# Processed by: cddbd v1.5.2PL0 Copyright (c) Steve Scherf et al.
# Submitted via: CDex 1.70beta2
#
DISCID=bf0d540e
DTITLE=RICK and RENNER - Unknown CD for MusicBrainz and FreeDB
DYEAR=1900
DGENRE=Country
TTITLE0=TUA PALAVRA
TTITLE1=PRECISO DIZER QUE TE AMO
TTITLE2=A FORÇA DO AMOR
TTITLE3=O SHOW NAO PODE PARAR
TTITLE4=O AMOR E EU
TTITLE5=SÓ QUERO TE DIZER
TTITLE6=EU MERECO
TTITLE7=SEM DIREÇAO
TTITLE8=CREDENCIAL
TTITLE9=BEBEDEIRA
TTITLE10=MARAVILHOSA
TTITLE11=EU E O SABIA
TTITLE12=FILHA
TTITLE13=MULECA
EXTD=
EXTT0=
EXTT1=
EXTT2=
EXTT3=
EXTT4=
EXTT5=
EXTT6=
EXTT7=
EXTT8=
EXTT9=
EXTT10=
EXTT11=
EXTT12=
EXTT13=
PLAYORDER=
